<?xml version="1.0" encoding="utf-8"?>
<!-- Generator: Adobe Illustrator 17.1.0, SVG Export Plug-In . SVG Version: 6.00 Build 0)  -->
<!DOCTYPE svg PUBLIC "-//W3C//DTD SVG 1.1//EN" "http://www.w3.org/Graphics/SVG/1.1/DTD/svg11.dtd">
<svg version="1.1" id="Layer_1" xmlns="http://www.w3.org/2000/svg" xmlns:xlink="http://www.w3.org/1999/xlink" x="0px" y="0px"
	 viewBox="0 0 728.5 515.91" enable-background="new 0 0 728.5 515.91" xml:space="preserve">
<text transform="matrix(1 0 0 1 193.0917 -88.0449)" font-family="'CorelDraw'" font-size="76.305" letter-spacing="3">CLASSICSCOUT</text>
<path fill="none" d="M235.479,231.113c0-16.027-7.308-30.347-18.773-39.81c-8.919-7.362-20.354-11.784-32.821-11.784
	c-28.495,0-51.594,23.1-51.594,51.594c0,28.495,23.1,51.594,51.594,51.594c12.446,0,23.862-4.408,32.774-11.746
	C228.151,261.498,235.479,247.161,235.479,231.113z"/>
<path fill="#006633" d="M142.204,248.439L142.204,248.439l2.158,0c0.47,1.068,0.982,2.114,1.535,3.135
	c-0.552-1.021-1.064-2.067-1.535-3.135H142.204z"/>
<path fill="#006633" d="M203.147,190.292c0.746,0.354,1.481,0.727,2.204,1.12C204.628,191.02,203.893,190.646,203.147,190.292z"/>
<path fill="#006633" d="M216.659,200.106c-0.748-0.791-1.525-1.555-2.328-2.29C215.133,198.551,215.91,199.315,216.659,200.106z"/>
<path fill="#006633" d="M216.659,200.106c0.748,0.791,1.469,1.609,2.159,2.452C218.127,201.714,217.407,200.896,216.659,200.106z"/>
<path fill="#FFFFFF" d="M339.254,243.657c0.831-0.914,1.546-1.712,2.16-2.409c-0.072-0.314-0.144-0.628-0.217-0.942
	c-1.068,1.689-2.124,3.226-3.17,4.613c-0.063,0.083-0.137,0.163-0.201,0.246c0.219-0.253,0.439-0.495,0.659-0.713
	C338.827,244.113,339.083,243.848,339.254,243.657z"/>
<path fill="#FFFFFF" d="M370.85,240.619c0.081-0.017,0.166-0.013,0.252,0.001c0-0.105-0.001-0.211-0.001-0.316
	C371.017,240.409,370.933,240.513,370.85,240.619z"/>
<g>
	<path d="M305.167,225.496c0.963-2.477,1.799-4.925,2.505-7.343c0.706-2.417,1.156-4.626,1.349-6.625
		c0-0.625-0.015-1.154-0.045-1.589c-0.031-0.435-0.127-0.636-0.288-0.602c-0.587,0.122-1.22,0.659-1.897,1.609
		c-0.677,0.951-1.356,2.186-2.033,3.707c-0.677,1.521-1.487,3.934-2.427,7.238c-0.941,3.304-1.412,4.954-1.412,4.955
		c0,0.001-0.287,1.504-0.862,4.507c-0.574,3.004-0.916,5.609-1.026,7.816c0.964-1.906,1.986-4.041,3.067-6.407
		C303.181,230.396,304.203,227.974,305.167,225.496z"/>
	<path d="M344.098,247.153c0.31,0.251,0.667,0.524,1.073,0.817c0.405,0.294,0.875,0.54,1.409,0.74
		c0.534,0.199,1.142,0.219,1.825,0.06c0.832-0.194,1.521-0.493,2.065-0.9c0.544-0.406,0.977-0.879,1.297-1.417
		c0.32-0.538,0.545-1.129,0.673-1.773c0.128-0.644,0.192-1.301,0.192-1.97c0-0.582-0.037-1.166-0.112-1.754
		c-0.075-0.587-0.064-1.339,0.032-2.257c0.096-0.918,0.074-1.603-0.064-2.056c-0.139-0.453-0.262-0.841-0.369-1.161
		c-2.956,3.79-5.913,7.587-8.869,11.385C343.506,246.805,343.789,246.901,344.098,247.153z"/>
	<path d="M569.065,209.683c0.62-1.096,1.266-2.279,1.937-3.546c0.673-1.267,1.276-2.504,1.814-3.713
		c0.538-1.209,0.982-2.333,1.333-3.374c0.351-1.04,0.528-1.885,0.528-2.536c0-0.225-0.016-0.476-0.047-0.751
		c-0.032-0.275-0.098-0.531-0.202-0.771c-0.103-0.239-0.263-0.434-0.48-0.583c-0.217-0.15-0.523-0.21-0.915-0.182
		c-0.538,0.039-1.08,0.551-1.627,1.536c-0.548,0.985-1.076,2.232-1.581,3.739c-0.507,1.508-0.982,3.163-1.426,4.965
		c-0.445,1.802-0.853,3.55-1.225,5.245c0.309-0.002,0.62-0.007,0.929-0.015C568.413,209.689,568.734,209.684,569.065,209.683z"/>
	<path d="M315.778,253.648c0.192,0.365,0.449,0.639,0.769,0.822c0.321,0.182,0.727,0.22,1.219,0.111
		c0.791-0.174,1.507-0.677,2.149-1.508c0.641-0.831,1.197-1.783,1.668-2.856c0.471-1.072,0.85-2.157,1.139-3.254
		c0.289-1.096,0.476-1.998,0.561-2.706c0.796-3.65,1.592-7.3,2.388-10.952c-0.875,0.2-1.729,0.611-2.561,1.232
		c-0.832,0.622-1.617,1.386-2.354,2.291c-0.736,0.906-1.414,1.902-2.033,2.992c-0.62,1.09-1.228,2.398-1.825,3.927
		c-0.598,1.528-1.02,2.848-1.265,3.959c-0.245,1.112-0.368,2.133-0.368,3.064c0,0.55,0.037,1.077,0.112,1.578
		C315.452,252.85,315.585,253.283,315.778,253.648z"/>
	<path d="M371.102,240.62c0.187,0.03,0.385,0.128,0.597,0.305c0.309,0.258,0.667,0.539,1.073,0.842
		c0.405,0.303,0.875,0.561,1.409,0.774c0.534,0.212,1.142,0.249,1.825,0.109c0.832-0.17,1.521-0.449,2.065-0.84
		c0.544-0.39,0.977-0.849,1.297-1.376c0.32-0.527,0.545-1.111,0.672-1.751c0.128-0.64,0.192-1.294,0.192-1.964
		c0-0.582-0.037-1.168-0.112-1.758c-0.075-0.589-0.064-1.341,0.032-2.256c0.096-0.915,0.074-1.601-0.064-2.059
		c-0.14-0.458-0.262-0.849-0.369-1.174c-2.873,3.588-5.746,7.202-8.619,10.831C371.101,240.409,371.101,240.514,371.102,240.62z"/>
	<path d="M516.278,230.998c-0.288-0.522-0.659-0.898-1.112-1.131c-0.452-0.232-0.999-0.263-1.637-0.096
		c-0.844,0.221-1.647,0.793-2.408,1.714c-0.763,0.922-1.431,2.02-2.007,3.294c-0.577,1.275-1.03,2.635-1.36,4.08
		c-0.329,1.446-0.494,3.023-0.494,4.732c0,0.865,0.082,1.656,0.247,2.375c0.165,0.719,0.422,1.315,0.772,1.788
		c0.35,0.474,0.813,0.804,1.39,0.992c0.576,0.188,1.266,0.175,2.069-0.036c0.7-0.184,1.38-0.718,2.039-1.601
		c0.658-0.883,1.235-1.929,1.729-3.139c0.495-1.21,0.891-2.62,1.189-4.232c0.298-1.611,0.448-3.014,0.448-4.208
		c0-0.947-0.073-1.808-0.216-2.584C516.782,232.169,516.567,231.521,516.278,230.998z"/>
	<path d="M578.849,249.326c-0.161-0.282-0.368-0.481-0.621-0.597c-0.253-0.115-0.558-0.116-0.914-0.003
		c-0.472,0.149-0.92,0.492-1.346,1.029c-0.425,0.536-0.799,1.168-1.121,1.896c-0.322,0.728-0.575,1.5-0.759,2.316
		c-0.184,0.816-0.275,1.701-0.275,2.655c0,0.483,0.045,0.924,0.138,1.32c0.092,0.397,0.235,0.723,0.431,0.978
		c0.195,0.256,0.454,0.427,0.776,0.516c0.322,0.089,0.707,0.062,1.156-0.079c0.39-0.123,0.77-0.441,1.138-0.955
		c0.368-0.513,0.69-1.116,0.966-1.806c0.276-0.691,0.497-1.491,0.664-2.401c0.167-0.909,0.25-1.697,0.25-2.364
		c0-0.529-0.04-1.008-0.12-1.437C579.13,249.964,579.01,249.608,578.849,249.326z"/>
	<g>
		<polygon points="640.994,283.212 637.444,276.343 508.778,276.343 508.778,276.342 368.328,276.342 350.332,276.342 
			209.883,276.342 206.332,283.211 350.332,283.211 368.328,283.211 478.999,283.211 478.999,283.212 		"/>
		<polygon points="498.994,179.051 478.999,179.051 368.328,179.051 368.328,179.05 206.332,179.05 209.883,185.919 
			336.999,185.919 336.999,185.92 478.999,185.92 495.444,185.92 637.444,185.92 640.994,179.051 		"/>
		<g>
			<path d="M142.467,228.466c0.644-10.229,5.01-19.76,12.402-26.997c7.81-7.646,18.115-11.856,29.015-11.856
				c16.448,0,31.368,9.751,38.008,24.841l0.435,0.988h1.079h2.158h2.483l-0.956-2.291c-3.515-8.425-9.379-15.602-16.956-20.756
				c-7.767-5.283-16.844-8.075-26.251-8.075c-12.301,0-23.925,4.753-32.732,13.384c-8.406,8.237-13.335,19.109-13.986,30.764h-0.063
				l-0.013,1.654v0.993v0.993v1.654h1.654h1.996h6.17H160.5v-5.294H142.467z M214.33,197.816c0.803,0.735,1.58,1.499,2.328,2.29
				c0.748,0.791,1.469,1.609,2.159,2.452c-0.69-0.843-1.411-1.661-2.159-2.452C215.91,199.315,215.133,198.551,214.33,197.816
				c-0.803-0.735-1.633-1.442-2.488-2.118C212.697,196.374,213.527,197.081,214.33,197.816z M210.542,194.706
				c-0.879-0.646-1.783-1.26-2.709-1.842C208.759,193.446,209.662,194.06,210.542,194.706z M203.147,190.292
				c0.746,0.354,1.481,0.727,2.204,1.12c0.362,0.196,0.72,0.397,1.076,0.603c-0.356-0.206-0.714-0.407-1.076-0.603
				C204.628,191.02,203.893,190.646,203.147,190.292c-0.373-0.177-0.749-0.349-1.128-0.515
				C202.398,189.944,202.774,190.116,203.147,190.292z M198.935,188.552c-1.57-0.557-3.179-1.029-4.823-1.411
				C195.755,187.523,197.365,187.996,198.935,188.552z"/>
			<path d="M229.025,228.466h-1.996h-5.261h-13.509v5.294h17.043c-0.644,10.229-5.01,19.761-12.402,26.997
				c-7.81,7.646-18.115,11.856-29.016,11.856c-16.448,0-31.368-9.751-38.008-24.841l-0.435-0.988h-1.079h-2.158h-2.483l0.956,2.291
				c3.515,8.425,9.379,15.602,16.956,20.756c7.767,5.283,16.844,8.075,26.251,8.075c12.301,0,23.925-4.753,32.732-13.384
				c8.406-8.237,13.335-19.109,13.986-30.764h0.063l0.013-1.654v-0.993v-0.993v-1.654H229.025z M145.897,251.574
				c-0.552-1.021-1.064-2.067-1.535-3.135h-2.158v0h2.158C144.832,249.507,145.344,250.553,145.897,251.574
				c0.184,0.34,0.373,0.678,0.565,1.013C146.269,252.252,146.081,251.914,145.897,251.574z M148.097,255.204
				c0.575,0.851,1.179,1.681,1.812,2.488C149.276,256.885,148.672,256.055,148.097,255.204z M152.939,261.162
				c0.713,0.734,1.453,1.444,2.216,2.126C154.392,262.606,153.652,261.896,152.939,261.162z M214.686,264.081
				c-0.521,0.487-1.053,0.962-1.596,1.424c-0.543,0.462-1.098,0.912-1.663,1.348c0.565-0.436,1.119-0.886,1.663-1.348
				C213.633,265.042,214.166,264.568,214.686,264.081c1.302-1.217,2.532-2.51,3.683-3.872
				C217.218,261.57,215.988,262.864,214.686,264.081z M219.712,258.541c0.435-0.566,0.856-1.143,1.264-1.73
				C220.568,257.398,220.146,257.975,219.712,258.541z M222.158,255.02c0.761-1.214,1.465-2.466,2.11-3.753
				C223.624,252.554,222.919,253.807,222.158,255.02z M224.741,250.296c0.307-0.652,0.6-1.313,0.876-1.981
				C225.341,248.983,225.048,249.643,224.741,250.296z M226.4,246.285c0.245-0.684,0.474-1.376,0.686-2.075
				C226.873,244.908,226.645,245.6,226.4,246.285z M227.928,241.017c-0.162,0.719-0.341,1.432-0.536,2.138
				C227.587,242.449,227.766,241.737,227.928,241.017c0.242-1.079,0.446-2.173,0.61-3.279
				C228.374,238.845,228.17,239.938,227.928,241.017z M228.688,236.627c0.091-0.743,0.164-1.492,0.218-2.246
				C228.851,235.135,228.779,235.884,228.688,236.627z"/>
		</g>
		<g>
			<path d="M201.147,235.147c0,4.546-0.878,7.351-2.634,8.416c-1.756,1.065-6.37,1.597-13.84,1.597
				c-7.677,0-12.337-0.727-13.982-2.182c-1.645-1.454-2.476-5.583-2.492-12.385c0.016-6.818,0.93-10.958,2.742-12.421
				c1.812-1.462,6.938-2.193,15.377-2.193c6.644,0,10.748,0.505,12.314,1.514c1.565,1.01,2.348,3.652,2.348,7.927h-3.624
				c0-2.861-0.676-4.625-2.026-5.292c-1.351-0.668-4.902-1.001-10.655-1.001c-6.165,0-9.848,0.536-11.047,1.609
				c-1.2,1.073-1.8,4.359-1.8,9.858c0,5.483,0.6,8.758,1.8,9.823s4.882,1.597,11.047,1.597c5.816,0,9.412-0.366,10.786-1.097
				s2.062-2.654,2.062-5.77H201.147z"/>
		</g>
		<path d="M634.665,191.303H578.78c0.157,0.404,0.305,0.817,0.421,1.271c0.277,1.091,0.417,2.233,0.417,3.426
			c0,0.988-0.144,2.034-0.432,3.141c-0.289,1.108-0.68,2.241-1.174,3.399c-0.495,1.159-1.077,2.34-1.746,3.543
			c-0.669,1.204-1.375,2.404-2.115,3.601c0.185-0.08,0.495-0.113,0.928-0.098c0.432,0.015,0.932,0.016,1.498,0.003
			c0.565-0.013,1.178-0.025,1.837-0.035c0.659-0.01,1.297-0.013,1.914-0.01c0.618,0.003,1.194,0.012,1.73,0.023
			c0.535,0.012,0.978,0.028,1.328,0.045c0.411,0.02,0.71,0.249,0.896,0.684c0.186,0.435,0.277,0.985,0.277,1.649
			c0,0.769-0.206,1.395-0.618,1.88c-0.412,0.485-0.866,0.73-1.36,0.737c-3.957,0.053-7.914,0.262-11.872,0.602
			c-0.6,0.875-1.204,1.738-1.815,2.59c-0.609,0.851-1.174,1.624-1.691,2.316c-0.082,1.285-0.154,2.549-0.216,3.791
			c-0.02,0.538-0.041,1.091-0.061,1.659c-0.021,0.569-0.042,1.131-0.062,1.69c-0.02,0.558-0.037,1.096-0.046,1.611
			c-0.011,0.516-0.016,0.99-0.015,1.422c0,1.112,0.103,2.037,0.309,2.777c0.207,0.74,0.507,1.332,0.9,1.776
			c0.392,0.445,0.872,0.747,1.441,0.91c0.568,0.163,1.204,0.215,1.907,0.157c0.433-0.036,0.973-0.182,1.623-0.435
			c0.65-0.253,1.361-0.585,2.133-0.992c0.773-0.407,1.587-0.878,2.443-1.411c0.856-0.533,1.7-1.105,2.534-1.717
			c0.835-0.611,1.633-1.246,2.396-1.905c0.763-0.659,1.453-1.327,2.071-2.006c0,2.635,0,5.271,0,7.906
			c-1.979,1.153-3.742,2.201-5.288,3.12c-1.546,0.919-2.922,1.71-4.128,2.359c-1.206,0.649-2.278,1.159-3.216,1.521
			c-0.939,0.363-1.789,0.582-2.552,0.653c-1.557,0.146-2.929-0.18-4.116-0.991c-1.187-0.81-2.18-2.049-2.979-3.726
			c-0.163-0.343-0.313-0.714-0.46-1.09c-0.348,0.354-0.725,0.722-1.166,1.117c-0.669,0.601-1.41,1.214-2.223,1.842
			c-0.813,0.629-1.678,1.249-2.594,1.862c-0.916,0.614-1.837,1.177-2.764,1.692c-0.926,0.514-1.832,0.959-2.715,1.333
			c-0.884,0.374-1.704,0.634-2.459,0.778c-0.769,0.147-1.428,0.124-1.974-0.073c-0.546-0.196-1.017-0.528-1.411-0.997
			c-0.395-0.468-0.729-1.054-1.002-1.759c-0.274-0.705-0.511-1.503-0.714-2.395c-0.742,1.109-1.525,2.154-2.35,3.134
			c-0.825,0.98-1.665,1.86-2.52,2.639c-0.855,0.78-1.721,1.437-2.598,1.973c-0.877,0.537-1.726,0.902-2.551,1.096
			c-0.677,0.159-1.312,0.196-1.907,0.113c-0.594-0.084-1.123-0.337-1.584-0.761c-0.461-0.423-0.826-1.039-1.092-1.849
			c-0.267-0.809-0.4-1.862-0.4-3.158c0.021-2.701,0.228-4.82,0.618-6.356c0.351-1.285,0.689-2.913,1.014-4.861
			c-0.68-0.473-1.376-0.969-2.11-1.515c-1.06-0.789-2.105-1.419-3.134-1.891c-1.029-0.472-1.915-0.86-2.656-1.165
			c-0.082,0.134-0.165,0.269-0.247,0.403c0.597,1.042,1.045,2.189,1.343,3.441c0.298,1.252,0.448,2.712,0.448,4.38
			c0,1.215-0.134,2.474-0.401,3.777c-0.268,1.303-0.654,2.595-1.159,3.877c-0.504,1.282-1.122,2.521-1.852,3.717
			c-0.732,1.198-1.565,2.288-2.502,3.272c-0.937,0.984-1.962,1.839-3.073,2.562c-1.112,0.724-2.295,1.251-3.552,1.583
			c-1.811,0.478-3.361,0.491-4.647,0.038c-1.287-0.453-2.342-1.209-3.166-2.269c-0.544-0.7-0.982-1.508-1.333-2.403
			c-0.382,0.503-0.767,1-1.16,1.483c-0.761,0.941-1.59,1.879-2.486,2.811c-0.896,0.934-1.833,1.799-2.81,2.596
			c-0.979,0.798-1.998,1.501-3.058,2.111c-1.06,0.608-2.135,1.049-3.221,1.32c-1.907,0.475-3.58,0.533-5.021,0.179
			c-1.44-0.354-2.647-1.008-3.621-1.956c-0.974-0.948-1.71-2.14-2.207-3.571c-0.497-1.432-0.745-2.982-0.745-4.65
			c0-1.193,0.207-2.671,0.62-4.432c0.414-1.761,0.865-3.32,1.351-4.677c0.486-1.357,1.086-2.684,1.801-3.984
			c0.713-1.299,1.541-2.487,2.484-3.567c0.942-1.08,1.992-2.013,3.151-2.802c1.159-0.789,2.432-1.357,3.818-1.706
			c1.249-0.314,2.404-0.428,3.466-0.341c1.063,0.088,1.972,0.353,2.728,0.795c0.756,0.443,1.347,1.045,1.774,1.809
			c0.427,0.764,0.641,1.65,0.641,2.659c0,0.7-0.101,1.416-0.3,2.147c-0.201,0.732-0.591,1.632-1.17,2.698
			c-0.579,1.067-1.142,1.836-1.688,2.306c-0.546,0.471-1.164,0.794-1.854,0.972c-1.041,0.267-1.714,0.18-2.018-0.257
			c-0.498-0.677-0.656-1.347-0.472-2.012c0.061-0.344,0.246-1.153,0.554-2.426c0.041-0.175,0.051-0.548,0.031-1.12
			c0-0.494-0.052-0.893-0.154-1.196c-0.102-0.303-0.327-0.411-0.675-0.323c-0.841,0.213-1.559,0.594-2.153,1.143
			c-0.595,0.55-1.102,1.201-1.522,1.953c-0.42,0.752-0.835,1.771-1.246,3.055c-0.409,1.284-0.702,2.349-0.876,3.194
			c-0.174,0.846-0.281,1.639-0.322,2.379c-0.041,0.741-0.061,1.358-0.061,1.852c0,0.741,0.067,1.497,0.2,2.268
			c0.133,0.77,0.399,1.442,0.799,2.013c0.399,0.572,0.917,1,1.553,1.286c0.635,0.286,1.455,0.303,2.46,0.051
			c0.988-0.248,2.079-0.828,3.273-1.741c1.194-0.912,2.394-1.989,3.598-3.228c1.205-1.239,2.352-2.558,3.443-3.956
			c0.031-0.039,0.058-0.076,0.088-0.115c-0.023-0.394-0.035-0.793-0.035-1.196c0-2.718,0.34-5.148,1.019-7.293
			c0.679-2.145,1.652-4.109,2.918-5.895c1.267-1.785,2.816-3.337,4.648-4.655c1.832-1.317,3.891-2.278,6.177-2.875
			c1.956-0.511,3.788-0.682,5.497-0.512c1.709,0.17,3.309,0.578,4.802,1.225c1.492,0.647,2.883,1.587,4.169,2.82
			c0.198,0.19,0.38,0.371,0.574,0.559c0.056-0.314,0.129-0.729,0.222-1.258c0.097-0.55,0.243-1.158,0.438-1.822
			c0.196-0.665,0.437-1.35,0.726-2.057c0.288-0.707,0.628-1.364,1.019-1.971c0.391-0.607,0.85-1.136,1.374-1.588
			c0.525-0.451,1.117-0.763,1.776-0.934c1.092-0.197,1.873-0.193,2.348,0.002c0.472,0.196,0.71,0.518,0.71,0.963
			c-0.186,1.43-0.394,2.81-0.625,4.142c-0.231,1.332-0.463,2.675-0.697,4.027c-0.233,1.352-0.494,2.856-0.779,4.512
			c-0.287,1.656-0.516,2.984-0.689,3.984c-0.172,0.999-0.312,1.807-0.418,2.424c-0.106,0.617-0.159,0.935-0.159,0.956
			c0,0.383,0.036,0.742,0.108,1.075c0.073,0.334,0.181,0.623,0.325,0.866c0.145,0.243,0.331,0.424,0.558,0.543
			c0.228,0.118,0.496,0.143,0.806,0.073c0.455-0.102,0.92-0.326,1.395-0.672c0.475-0.346,0.919-0.794,1.333-1.345
			c0.435-0.513,0.816-1.14,1.147-1.881c0.33-0.72,0.578-1.527,0.743-2.422c1.135-5.849,2.27-11.693,3.405-17.53
			c0.1-0.514,0.502-1.012,1.207-1.49c0.705-0.478,1.506-0.802,2.401-0.97c1.013-0.19,1.819-0.15,2.415,0.114
			c0.597,0.264,0.894,0.686,0.895,1.262c0,0.556-0.018,1.317-0.055,2.281c-0.037,0.964-0.161,2.031-0.372,3.201
			c-0.21,1.17-0.465,2.585-0.763,4.247c-0.3,1.661-0.546,3.036-0.742,4.124c-0.196,1.088-0.367,2.04-0.514,2.855
			c-0.147,0.816-0.22,1.403-0.22,1.761c0,0.579,0.009,1.11,0.026,1.592c0.018,0.482,0.072,0.896,0.161,1.241
			c0.089,0.346,0.226,0.599,0.414,0.761c0.186,0.162,0.458,0.211,0.814,0.147c0.453-0.082,1.004-0.293,1.652-0.632
			c0.649-0.34,1.339-0.762,2.069-1.265c0.731-0.503,1.477-1.057,2.239-1.66c0.762-0.604,1.487-1.224,2.178-1.862
			c0.522-0.483,0.998-0.953,1.45-1.417c-0.387-2.45-0.583-5.233-0.584-8.358c0-1.235,0.051-2.559,0.153-3.974
			c0.102-1.414,0.245-2.824,0.429-4.229c-0.622-0.005-1.104-0.022-1.446-0.052c-0.341-0.031-0.705-0.057-1.088-0.08
			c-0.383-0.022-0.871-0.034-1.461-0.033c-0.591,0.001-1.445,0.023-2.565,0.073c-0.497,0.014-0.88-0.051-1.15-0.2
			c-0.269-0.148-0.466-0.343-0.59-0.585c-0.124-0.242-0.197-0.504-0.218-0.787c-0.02-0.283-0.031-0.527-0.031-0.734
			c0-0.325,0.202-0.608,0.605-0.848c0.404-0.241,0.921-0.458,1.553-0.649c0.63-0.191,1.324-0.352,2.079-0.482
			c0.756-0.13,1.48-0.235,2.174-0.318c0.693-0.082,1.313-0.156,1.863-0.223c0.548-0.066,0.926-0.133,1.133-0.202
			c0.555-2.846,1.258-5.624,2.112-8.327c0.853-2.703,1.808-5.126,2.867-7.265c0.618-1.249,1.274-2.345,1.958-3.321h-50.428h-38.833
			H368.328v-0.001H216.706c11.465,9.463,18.773,23.783,18.773,39.81c0,16.049-7.328,30.385-18.82,39.848h31.557
			c-0.179-0.19-0.37-0.366-0.542-0.565c-1.644-1.91-2.909-4.16-3.794-6.735c-0.886-2.574-1.329-5.286-1.329-8.13
			c0-1.977,0.213-4.1,0.64-6.368c0.427-2.269,1.041-4.583,1.841-6.946c0.801-2.362,1.777-4.726,2.93-7.098
			c1.153-2.371,2.46-4.659,3.922-6.87c1.462-2.211,3.069-4.286,4.819-6.233c1.75-1.947,3.618-3.683,5.603-5.215
			c1.985-1.532,4.077-2.8,6.276-3.81c2.198-1.009,4.483-1.667,6.852-1.975c1.537-0.2,3.095-0.141,4.675,0.175
			c1.58,0.317,2.999,0.939,4.259,1.873c1.259,0.935,2.29,2.197,3.09,3.794c0.801,1.597,1.201,3.568,1.201,5.917
			c0,1.58-0.252,3.218-0.753,4.912c-0.502,1.695-1.19,3.355-2.065,4.979c-0.876,1.625-1.905,3.179-3.09,4.661
			c-1.185,1.482-2.461,2.796-3.826,3.938c-1.366,1.143-2.786,2.086-4.259,2.829c-1.473,0.743-2.946,1.198-4.419,1.364
			c-1.943,0.219-3.394,0.104-4.355-0.326c-0.96-0.429-1.441-1.139-1.441-2.12c0-0.171-0.005-0.372-0.016-0.607
			c-0.011-0.234-0.016-0.479-0.016-0.735c0-0.384,0.021-0.787,0.064-1.207c0.043-0.42,0.128-0.807,0.256-1.161
			c0.128-0.353,0.315-0.648,0.56-0.885c0.245-0.237,0.581-0.376,1.009-0.419c0.256-0.025,0.48-0.01,0.672,0.045
			c0.193,0.056,0.405,0.114,0.64,0.174c0.235,0.061,0.517,0.112,0.849,0.151c0.331,0.039,0.752,0.031,1.265-0.026
			c1.366-0.152,2.748-0.614,4.146-1.387c1.398-0.772,2.657-1.782,3.778-3.025c1.12-1.242,2.038-2.67,2.753-4.278
			c0.715-1.609,1.073-3.322,1.073-5.137c0-0.961-0.128-1.854-0.384-2.681c-0.256-0.827-0.672-1.524-1.248-2.092
			c-0.576-0.568-1.318-0.986-2.226-1.257c-0.908-0.271-2.012-0.321-3.314-0.156c-1.537,0.194-3.037,0.712-4.499,1.553
			c-1.463,0.842-2.866,1.907-4.211,3.2c-1.345,1.293-2.62,2.784-3.826,4.476c-1.206,1.693-2.321,3.482-3.346,5.372
			c-1.025,1.89-1.948,3.842-2.77,5.86c-0.822,2.018-1.521,4.019-2.097,6.007c-0.576,1.988-1.02,3.908-1.329,5.762
			c-0.309,1.855-0.464,3.556-0.464,5.106c0,2.277,0.272,4.251,0.817,5.917c0.544,1.667,1.317,3.039,2.321,4.112
			c1.003,1.072,2.231,1.839,3.682,2.29c1.451,0.451,3.084,0.601,4.899,0.44c2.262-0.201,4.371-0.709,6.324-1.513
			c1.953-0.804,3.815-1.799,5.587-2.98c1.772-1.181,3.485-2.491,5.139-3.925c1.654-1.434,3.308-2.887,4.963-4.356
			c1.654-1.468,3.341-2.898,5.059-4.289c0.144-0.117,0.3-0.217,0.445-0.332c-0.091-1.08-0.141-2.19-0.141-3.334
			c0-2.095,0.308-4.944,0.924-8.549c0.616-3.606,0.923-5.409,0.923-5.408c0,0,0.466-1.828,1.399-5.49
			c0.933-3.662,1.867-6.635,2.805-8.921c0.938-2.284,1.956-4.45,3.056-6.495c1.1-2.045,2.253-3.87,3.461-5.474
			c1.207-1.602,2.469-2.929,3.784-3.979c1.315-1.05,2.652-1.719,4.011-2.008c0.988-0.21,1.804-0.196,2.448,0.042
			c0.643,0.239,1.149,0.627,1.518,1.165c0.368,0.539,0.626,1.184,0.776,1.935c0.149,0.751,0.224,1.532,0.224,2.345
			c0,2.018-0.239,4.126-0.716,6.323c-0.477,2.197-1.12,4.44-1.93,6.729c-0.811,2.289-1.748,4.609-2.813,6.96
			c-1.065,2.351-2.176,4.692-3.329,7.023c-1.154,2.331-2.314,4.628-3.479,6.89c-1.165,2.262-2.24,4.457-3.225,6.586
			c-0.107,0.236-0.22,0.538-0.337,0.905c-0.118,0.368-0.23,0.76-0.337,1.179c-0.107,0.419-0.214,0.865-0.321,1.337
			c-0.107,0.473-0.194,0.931-0.257,1.373c0,0.151,0,0.302,0,0.452c0,0.56,0.059,1.092,0.177,1.597
			c0.118,0.505,0.262,0.95,0.434,1.337c0.171,0.387,0.353,0.686,0.546,0.896c0.193,0.21,0.375,0.298,0.547,0.265
			c0.415-0.081,0.89-0.26,1.426-0.539c0.535-0.278,1.104-0.623,1.705-1.035c0.601-0.411,1.218-0.87,1.852-1.377
			c0.334-0.266,0.645-0.535,0.967-0.803c0.069-1.321,0.278-2.699,0.644-4.138c0.451-1.773,1.149-3.737,2.094-5.892
			c0.944-2.156,1.959-4.063,3.043-5.721c1.084-1.657,2.27-3.159,3.559-4.505c1.289-1.346,2.647-2.492,4.075-3.439
			c1.428-0.947,2.883-1.589,4.365-1.927c0.493-0.112,0.881-0.103,1.16,0.027c0.279,0.131,0.51,0.299,0.692,0.505
			c0.182,0.206,0.359,0.408,0.531,0.606c0.172,0.198,0.386,0.321,0.644,0.369c0.257,0.049,0.52,0.059,0.789,0.029
			c0.268-0.029,0.542-0.076,0.821-0.141c0.236-0.054,0.477-0.115,0.725-0.183c0.247-0.068,0.489-0.13,0.725-0.184
			c0.322-0.075,0.623-0.112,0.902-0.112c0.279,0,0.526,0.083,0.74,0.249c0.214,0.167,0.379,0.43,0.497,0.791
			s0.177,0.876,0.177,1.545c0,1.02-0.107,2.177-0.32,3.471c-0.214,1.293-0.458,2.625-0.734,3.993
			c-0.276,1.369-0.59,2.929-0.942,4.681c-0.352,1.753-0.528,3.201-0.528,4.346c0,0.978,0.09,1.722,0.272,2.232
			c0.182,0.509,0.571,0.695,1.169,0.556c0.448-0.104,0.918-0.324,1.409-0.66c0.491-0.336,0.987-0.742,1.489-1.219
			c0.501-0.476,1.003-1.001,1.505-1.573c0.267-0.305,0.507-0.619,0.759-0.929c0.034-0.045,0.064-0.094,0.099-0.138
			c0.122-0.152,0.244-0.292,0.366-0.433c0.064-0.083,0.138-0.163,0.201-0.246c1.046-1.387,2.102-2.925,3.17-4.613
			c0.072,0.314,0.144,0.628,0.217,0.942c0.27-0.306,0.526-0.598,0.754-0.862c0.747-0.865,1.494-1.843,2.241-2.935
			c0.747-1.091,1.339-1.979,1.777-2.665c0.437-0.684,0.955-1.496,1.553-2.433c0.598-0.937,1.323-2.082,2.177-3.435
			c0.854-1.352,1.964-3.05,3.33-5.091c0.277-0.452,0.587-0.901,0.928-1.346c0.341-0.445,0.721-0.861,1.137-1.248
			c0.416-0.386,0.875-0.728,1.377-1.026c0.501-0.298,1.061-0.517,1.681-0.658c1.026-0.233,1.815-0.297,2.371-0.195
			c0.555,0.102,0.961,0.286,1.217,0.552c0.256,0.267,0.405,0.573,0.448,0.92c0.043,0.347,0.064,0.649,0.064,0.908
			c0,0.518-0.203,1.135-0.609,1.851c-0.406,0.717-0.854,1.422-1.345,2.114c-0.491,0.693-0.955,1.332-1.393,1.917
			c-0.438,0.584-0.689,1.003-0.754,1.255c0,0.669,0.049,1.267,0.146,1.795c0.098,0.528,0.229,1.038,0.392,1.529
			c0.163,0.492,0.332,1.015,0.506,1.569c0.174,0.554,0.341,1.202,0.501,1.942c0.16,0.741,0.181,1.804,0.064,3.19
			c-0.118,1.386-0.176,2.769-0.176,4.15c0.768-0.691,1.595-1.346,2.481-1.964c0.885-0.618,1.809-1.26,2.77-1.925
			c0.074-0.051,0.151-0.108,0.225-0.16c0.268-0.316,0.537-0.613,0.806-0.875c0.341-0.334,0.597-0.595,0.768-0.783
			c1.195-1.296,2.166-2.368,2.914-3.219c0.747-0.851,1.494-1.813,2.241-2.888c0.747-1.074,1.339-1.948,1.777-2.622
			c0.438-0.673,0.955-1.471,1.553-2.393c0.598-0.921,1.323-2.046,2.177-3.373c0.854-1.327,1.964-2.99,3.33-4.984
			c0.277-0.443,0.587-0.881,0.928-1.314c0.341-0.433,0.72-0.836,1.137-1.207c0.416-0.371,0.875-0.696,1.377-0.974
			c0.501-0.278,1.061-0.475,1.681-0.59c1.026-0.19,1.815-0.22,2.371-0.094c0.555,0.127,0.961,0.329,1.217,0.607
			c0.256,0.278,0.405,0.591,0.448,0.94c0.043,0.349,0.064,0.652,0.064,0.911c0,0.518-0.203,1.125-0.609,1.822
			c-0.406,0.698-0.853,1.383-1.345,2.054c-0.491,0.672-0.955,1.29-1.393,1.857c-0.438,0.566-0.689,0.974-0.754,1.224
			c0,0.668,0.049,1.269,0.146,1.801c0.098,0.532,0.229,1.047,0.392,1.545c0.163,0.499,0.332,1.029,0.506,1.59
			c0.174,0.561,0.341,1.216,0.501,1.963c0.16,0.748,0.181,1.812,0.064,3.193c-0.118,1.381-0.176,2.762-0.176,4.142
			c0.768-0.658,1.595-1.276,2.481-1.853c0.885-0.578,1.809-1.175,2.77-1.791c0.734-0.471,1.489-0.981,2.254-1.509
			c0.552-3.382,0.913-5.319,1.078-5.776c0.291-0.958,0.872-3.072,1.745-6.337c0.81-2.676,1.31-4.412,1.501-5.211
			c0.105-0.556,0.398-1.086,0.881-1.591c0.44-0.454,0.938-0.847,1.494-1.176c0.556-0.33,1.133-0.596,1.731-0.799
			c0.598-0.203,1.138-0.337,1.62-0.402c0.881-0.12,1.479-0.032,1.794,0.258c0.314,0.29,0.472,0.713,0.472,1.268
			c0,0.47-0.11,1.147-0.329,2.033c-0.219,0.886-0.469,1.896-0.749,3.03c-0.281,1.134-0.696,2.599-1.246,4.398
			c-0.55,1.799-0.926,3.321-1.127,4.565c-0.202,1.245-0.456,2.489-0.763,3.733c-0.307,1.245-0.46,2.357-0.46,3.339
			c0,0.96,0.106,1.708,0.32,2.243c0.213,0.535,0.651,0.755,1.313,0.663c0.768-0.106,1.622-0.488,2.561-1.145
			c0.939-0.656,1.889-1.421,2.85-2.296c0.441-0.401,0.862-0.822,1.294-1.231c-0.214-1.036-0.333-2.107-0.333-3.222
			c0-1.237,0.214-2.747,0.643-4.526c0.429-1.779,0.896-3.342,1.4-4.689c0.504-1.348,1.126-2.648,1.866-3.9
			c0.741-1.251,1.599-2.368,2.575-3.347c0.977-0.979,2.066-1.782,3.268-2.405c1.202-0.623,2.521-0.986,3.959-1.083
			c1.294-0.088,2.492,0.028,3.594,0.343c1.101,0.315,2.044,0.791,2.828,1.42c0.784,0.63,1.396,1.393,1.84,2.285
			c0.443,0.893,0.664,1.863,0.664,2.909c0,0.726-0.104,1.444-0.312,2.155c-0.208,0.711-0.612,1.552-1.213,2.523
			c-0.6,0.972-1.184,1.642-1.749,2.008c-0.566,0.367-1.207,0.568-1.923,0.606c-1.079,0.057-1.777-0.167-2.092-0.682
			c-0.517-0.801-0.68-1.526-0.49-2.179c0.064-0.345,0.255-1.147,0.574-2.405c0.043-0.173,0.053-0.558,0.032-1.155
			c0-0.512-0.053-0.936-0.16-1.271c-0.106-0.335-0.34-0.492-0.701-0.468c-0.872,0.056-1.616,0.316-2.232,0.778
			c-0.616,0.461-1.143,1.047-1.578,1.753c-0.436,0.707-0.866,1.693-1.291,2.955c-0.425,1.263-0.728,2.32-0.909,3.168
			c-0.18,0.849-0.292,1.654-0.335,2.415c-0.043,0.762-0.064,1.399-0.064,1.911c0,0.768,0.069,1.563,0.207,2.383
			c0.138,0.82,0.415,1.559,0.829,2.217c0.414,0.659,0.951,1.19,1.61,1.597c0.659,0.407,1.509,0.571,2.55,0.5
			c1.025-0.071,2.156-0.457,3.394-1.155c1.237-0.698,2.481-1.552,3.73-2.562c1.249-1.01,2.438-2.103,3.57-3.283
			c1.131-1.179,2.102-2.282,2.913-3.315c0.043,0.072,0.086,0.145,0.129,0.216c0.049-0.107,0.084-0.214,0.136-0.321
			c0.832-1.725,2.086-3.302,3.762-4.758c1.675-1.456,3.767-2.714,6.275-3.813c2.508-1.1,5.447-1.883,8.819-2.396
			c2.141-0.326,4.237-0.355,6.285-0.083c2.049,0.273,3.876,0.829,5.481,1.685c1.606,0.855,2.898,1.987,3.876,3.407
			c0.978,1.42,1.467,3.115,1.467,5.092c0,1.174-0.2,2.421-0.602,3.742c-0.402,1.321-1.045,2.745-1.93,4.266
			c-0.865,1.477-1.808,2.631-2.826,3.461c-1.019,0.831-1.94,1.321-2.764,1.476c-0.617,0.116-1.122,0.03-1.513-0.258
			c-0.391-0.288-0.587-0.793-0.587-1.512c0-0.534,0.124-1.189,0.374-1.964c0.249-0.775,0.676-1.69,1.278-2.748
			c0.561-1.009,0.977-1.936,1.247-2.779c0.271-0.843,0.405-1.603,0.406-2.282c0-1.048-0.284-1.913-0.852-2.596
			c-0.569-0.684-1.353-1.199-2.354-1.552c-1.001-0.353-2.203-0.542-3.607-0.575c-1.405-0.034-2.942,0.077-4.615,0.322
			c-1.853,0.271-3.464,0.695-4.833,1.286c-1.37,0.591-2.512,1.263-3.428,2.029c-0.917,0.766-1.596,1.577-2.038,2.443
			c-0.443,0.865-0.664,1.697-0.664,2.499c0,1.358,0.396,2.537,1.189,3.53c0.792,0.992,1.842,1.877,3.15,2.643
			c1.307,0.766,2.79,1.453,4.447,2.049c1.657,0.597,3.356,1.195,5.096,1.791c1.74,0.597,3.439,1.243,5.096,1.942
			c1.657,0.699,3.14,1.543,4.447,2.541c1.308,0.998,2.357,2.203,3.151,3.623c0.792,1.42,1.188,3.146,1.188,5.184
			c0,1.852-0.299,3.618-0.896,5.296c-0.597,1.678-1.415,3.241-2.455,4.683c-1.04,1.443-2.269,2.774-3.69,3.986
			c-1.421,1.211-2.955,2.269-4.601,3.165c-1.646,0.895-3.374,1.637-5.184,2.222h23.586h38.833h116.833L614.09,231.13
			L634.665,191.303z M411.898,202.427c-0.235,0.716-0.609,1.373-1.121,1.971c-0.512,0.599-1.158,1.112-1.937,1.543
			c-0.78,0.431-1.713,0.716-2.802,0.86c-1.879,0.249-3.266,0.002-4.162-0.763c-0.897-0.763-1.345-1.886-1.345-3.373
			c0-0.495,0.106-1.071,0.32-1.728c0.213-0.656,0.56-1.295,1.041-1.914c0.481-0.619,1.121-1.175,1.921-1.663
			c0.8-0.489,1.798-0.814,2.994-0.97c0.746-0.097,1.451-0.1,2.113-0.01c0.662,0.091,1.238,0.286,1.729,0.584
			c0.491,0.297,0.88,0.721,1.169,1.27c0.288,0.55,0.432,1.222,0.432,2.019C412.25,200.987,412.133,201.711,411.898,202.427z
			 M552.546,265.733c-0.012,0.169-0.049,0.367-0.112,0.594c-0.064,0.228-0.161,0.471-0.293,0.731
			c-0.133,0.261-0.319,0.507-0.56,0.74c-0.241,0.232-0.546,0.432-0.914,0.598c-0.369,0.164-0.816,0.264-1.346,0.293
			c-0.426,0.023-0.811-0.011-1.155-0.099c-0.345-0.088-0.642-0.234-0.889-0.435c-0.247-0.201-0.44-0.462-0.577-0.781
			c-0.138-0.319-0.208-0.705-0.207-1.156c0-0.377,0.061-0.747,0.181-1.109c0.121-0.362,0.308-0.686,0.56-0.973
			s0.581-0.519,0.983-0.701c0.402-0.181,0.88-0.285,1.432-0.318c0.954-0.057,1.679,0.097,2.173,0.489
			c0.494,0.392,0.742,0.992,0.742,1.811C552.563,265.459,552.557,265.565,552.546,265.733z M608.42,253.087
			c-0.5,0.434-1.029,0.836-1.587,1.209c-0.557,0.373-1.17,0.696-1.837,0.975c-0.667,0.278-1.42,0.466-2.259,0.573
			c-0.414,0.053-0.762-0.031-1.044-0.255c-0.281-0.224-0.509-0.559-0.681-1.007c-0.173-0.446-0.297-0.985-0.371-1.615
			c-0.075-0.63-0.112-1.323-0.112-2.078c0-0.731,0.027-1.51,0.078-2.336c0.052-0.827,0.123-1.665,0.215-2.515
			c-0.086,0.013-0.172,0.027-0.259,0.041c-1.167,3.14-2.334,6.308-3.501,9.5c-0.299,0.542-0.633,0.934-1,1.18
			c-0.369,0.245-0.794,0.422-1.276,0.533c-0.368,0.085-0.661,0.057-0.88-0.086c-0.219-0.143-0.388-0.353-0.509-0.63
			c-0.121-0.278-0.201-0.595-0.241-0.954c-0.041-0.358-0.061-0.711-0.061-1.057c0-0.15,0.012-0.367,0.034-0.649
			c0.023-0.283,0.058-0.609,0.104-0.978c0.046-0.369,0.098-0.76,0.155-1.173c0.058-0.412,0.115-0.822,0.173-1.229
			c0.126-0.954,0.281-1.985,0.466-3.091c-0.086,0.021-0.173,0.041-0.259,0.062c-0.139,0.207-0.297,0.506-0.475,0.897
			c-0.179,0.391-0.429,0.962-0.75,1.714c-0.322,0.752-0.733,1.728-1.233,2.93c-0.5,1.202-1.147,2.686-1.94,4.457
			c-0.23,0.521-0.497,0.906-0.802,1.154c-0.305,0.248-0.642,0.426-1.009,0.532c-0.472,0.137-0.852,0.151-1.139,0.04
			c-0.288-0.11-0.509-0.307-0.664-0.59c-0.155-0.283-0.259-0.626-0.311-1.029c-0.052-0.403-0.077-0.828-0.077-1.274
			c0-0.475,0.028-1.044,0.086-1.71c0.057-0.666,0.132-1.371,0.224-2.116c0.093-0.745,0.227-1.605,0.405-2.578
			c0.015-0.079,0.027-0.145,0.041-0.222c-0.358-0.231-0.725-0.473-1.11-0.738c-0.593-0.407-1.176-0.726-1.751-0.956
			c-0.575-0.231-1.069-0.419-1.483-0.565c-0.046,0.078-0.092,0.155-0.138,0.233c0.333,0.563,0.583,1.189,0.75,1.879
			c0.167,0.69,0.25,1.5,0.25,2.432c0,0.679-0.074,1.386-0.224,2.122c-0.149,0.736-0.365,1.471-0.647,2.203
			c-0.281,0.732-0.626,1.444-1.034,2.136c-0.408,0.692-0.874,1.329-1.397,1.907c-0.524,0.58-1.095,1.089-1.716,1.527
			c-0.621,0.438-1.282,0.768-1.983,0.989c-1.013,0.319-1.878,0.367-2.596,0.146c-0.719-0.221-1.308-0.619-1.768-1.194
			c-0.309-0.386-0.542-0.853-0.739-1.356c-0.218,0.296-0.427,0.608-0.653,0.892c-0.426,0.539-0.889,1.077-1.389,1.611
			c-0.5,0.535-1.024,1.03-1.569,1.486c-0.547,0.456-1.116,0.858-1.708,1.204c-0.592,0.346-1.193,0.594-1.799,0.745
			c-1.065,0.264-2.001,0.285-2.805,0.07c-0.804-0.215-1.479-0.601-2.023-1.15c-0.544-0.549-0.955-1.233-1.232-2.045
			c-0.279-0.812-0.417-1.685-0.417-2.617c0-0.666,0.116-1.486,0.347-2.458c0.232-0.973,0.482-1.832,0.755-2.58
			c0.272-0.747,0.607-1.475,1.005-2.188c0.4-0.712,0.861-1.363,1.388-1.955c0.525-0.591,1.113-1.103,1.76-1.538
			c0.647-0.434,1.358-0.749,2.133-0.948c0.697-0.179,1.343-0.25,1.935-0.21c0.594,0.04,1.102,0.177,1.523,0.414
			c0.422,0.238,0.752,0.565,0.991,0.985c0.238,0.42,0.357,0.911,0.357,1.474c0,0.391-0.056,0.792-0.168,1.204
			c-0.112,0.412-0.33,0.921-0.653,1.525c-0.323,0.604-0.638,1.041-0.942,1.31c-0.304,0.269-0.651,0.457-1.036,0.562
			c-0.581,0.158-0.957,0.114-1.126-0.129c-0.279-0.375-0.368-0.749-0.264-1.121c0.034-0.193,0.137-0.645,0.309-1.357
			c0.023-0.098,0.029-0.307,0.018-0.626c0-0.276-0.029-0.498-0.086-0.667c-0.058-0.168-0.183-0.228-0.378-0.177
			c-0.469,0.122-0.87,0.336-1.202,0.643c-0.332,0.307-0.615,0.67-0.85,1.088c-0.236,0.419-0.467,0.986-0.695,1.701
			c-0.229,0.716-0.393,1.307-0.49,1.778c-0.096,0.47-0.157,0.913-0.18,1.326c-0.023,0.414-0.034,0.758-0.034,1.034
			c0,0.414,0.037,0.837,0.111,1.268c0.074,0.432,0.222,0.809,0.446,1.13c0.223,0.322,0.513,0.564,0.867,0.725
			c0.354,0.162,0.812,0.173,1.374,0.03c0.552-0.141,1.161-0.469,1.828-0.988c0.667-0.519,1.337-1.133,2.01-1.842
			c0.672-0.708,1.314-1.464,1.923-2.265c0.024-0.032,0.043-0.06,0.067-0.092c-0.012-0.214-0.038-0.422-0.038-0.641
			c0-1.518,0.19-2.882,0.569-4.093c0.38-1.211,0.923-2.329,1.63-3.355c0.707-1.026,1.572-1.932,2.596-2.718
			c1.023-0.786,2.173-1.383,3.45-1.787c1.092-0.346,2.115-0.5,3.069-0.46c0.955,0.039,1.848,0.215,2.683,0.529
			c0.833,0.314,1.609,0.796,2.328,1.445c0.123,0.111,0.236,0.218,0.356,0.327c0.107-0.562,0.215-1.098,0.326-1.586
			c0.139-0.609,0.265-1.111,0.38-1.504c0.115-0.404,0.225-0.733,0.328-0.983c0.103-0.25,0.22-0.455,0.353-0.615
			c0.132-0.159,0.29-0.286,0.474-0.379c0.184-0.093,0.42-0.18,0.707-0.26c0.438-0.122,0.779-0.201,1.026-0.239
			c0.247-0.038,0.432-0.018,0.552,0.06c0.12,0.078,0.192,0.219,0.216,0.421c0.023,0.203,0.035,0.484,0.035,0.844
			c0,0.197-0.009,0.426-0.026,0.686c-0.017,0.26-0.043,0.54-0.077,0.839c-0.023,0.296-0.057,0.601-0.103,0.915
			c-0.081,0.602-0.127,0.916-0.139,0.942c-0.161,0.832-0.327,1.759-0.5,2.781c0.063,0.053,0.126,0.105,0.189,0.158
			c0.023-0.041,0.176-0.39,0.457-1.046c0.282-0.655,0.586-1.31,0.915-1.964c0.327-0.654,0.681-1.339,1.061-2.055
			c0.378-0.716,0.741-1.352,1.086-1.911c0.334-0.556,0.687-1.034,1.062-1.433c0.373-0.398,0.819-0.655,1.336-0.765
			c0.483-0.103,0.897-0.046,1.242,0.17c0.344,0.216,0.518,0.586,0.518,1.108c0,0.453-0.029,0.888-0.086,1.305
			c-0.069,0.536-0.138,0.945-0.207,1.225c-0.081,0.318-0.173,0.707-0.276,1.169c-0.081,0.399-0.224,0.979-0.432,1.741
			c-0.034,0.123-0.068,0.298-0.103,0.526c-0.011,0.072-0.017,0.12-0.017,0.143c0.063,0.057,0.126,0.113,0.19,0.17
			c0.024-0.039,0.183-0.377,0.483-1.011c0.299-0.634,0.623-1.268,0.974-1.902c0.351-0.634,0.724-1.298,1.121-1.994
			c0.396-0.695,0.767-1.306,1.112-1.836c0.333-0.516,0.666-0.957,1-1.324c0.333-0.366,0.743-0.582,1.225-0.641
			c0.54-0.066,0.997,0.026,1.371,0.273c0.374,0.247,0.561,0.634,0.56,1.156c0,0.801-0.04,1.565-0.12,2.292
			c-0.081,0.727-0.202,1.533-0.362,2.42c-0.161,0.887-0.282,1.692-0.362,2.414c-0.081,0.723-0.121,1.484-0.121,2.284
			c0,0.627,0.08,1.129,0.241,1.507c0.161,0.378,0.357,0.555,0.587,0.534c0.241-0.023,0.494-0.097,0.759-0.223
			c0.265-0.126,0.535-0.279,0.811-0.46c0.276-0.181,0.546-0.385,0.811-0.614c0.264-0.229,0.517-0.463,0.759-0.705
			c0.563-0.555,1.121-1.171,1.673-1.848c0.098,1.363,0.196,2.725,0.294,4.089C609.423,252.242,608.921,252.654,608.42,253.087z"/>
		<path d="M431.398,264.899c-1.143-1.891-1.714-4.124-1.714-6.676c0-1.318,0.211-2.475,0.633-3.475c0.421-1,0.947-1.838,1.575-2.517
			c0.628-0.678,1.312-1.197,2.054-1.558c0.741-0.361,1.431-0.555,2.069-0.582c0.659-0.027,1.209,0.126,1.652,0.464
			c0.443,0.337,0.664,0.886,0.664,1.647c0,0.351-0.04,0.723-0.119,1.118c-0.079,0.396-0.163,0.827-0.252,1.295
			c-0.089,0.468-0.173,0.982-0.252,1.542c-0.079,0.56-0.119,1.17-0.119,1.828c0,1.441,0.328,2.671,0.985,3.683
			c0.657,1.013,1.53,1.823,2.618,2.424c1.089,0.6,2.341,1.003,3.758,1.2c1.417,0.197,2.885,0.207,4.404,0.029
			c1.791-0.21,3.583-0.66,5.374-1.349c1.791-0.689,3.397-1.578,4.818-2.655c1.421-1.078,2.574-2.313,3.459-3.695
			c0.885-1.382,1.328-2.869,1.328-4.453c0-1.461-0.396-2.694-1.188-3.704c-0.793-1.01-1.843-1.89-3.151-2.649
			c-1.308-0.76-2.795-1.443-4.463-2.063c-1.668-0.619-3.366-1.263-5.095-1.936c-1.73-0.672-3.426-1.418-5.089-2.235
			c-1.664-0.818-3.147-1.772-4.45-2.852c-1.304-1.08-2.351-2.332-3.142-3.741c-0.431-0.769-0.734-1.611-0.929-2.512
			c-0.729,0.842-1.476,1.655-2.25,2.421c-0.79,0.788-1.649,1.56-2.577,2.318c-0.928,0.759-1.9,1.445-2.914,2.059
			c-1.014,0.615-2.071,1.13-3.17,1.55c-1.1,0.418-2.213,0.67-3.34,0.754c-1.977,0.147-3.712-0.064-5.205-0.649
			c-1.493-0.584-2.745-1.426-3.755-2.534c-0.3-0.33-0.572-0.685-0.829-1.052c-0.258,0.22-0.528,0.444-0.809,0.672
			c-1.142,0.93-2.375,1.812-3.698,2.651c-1.324,0.839-2.673,1.577-4.05,2.215c-1.377,0.639-2.685,1.052-3.922,1.237
			c-1.111,0.166-2.045,0.157-2.802-0.034c-0.758-0.19-1.372-0.523-1.841-1.002c-0.47-0.478-0.806-1.101-1.008-1.868
			c-0.045-0.171-0.067-0.365-0.102-0.546c-0.149,0.101-0.291,0.203-0.443,0.304c-1.74,1.154-3.569,2.233-5.488,3.236
			c-1.919,1.003-3.855,1.883-5.808,2.639c-1.953,0.756-3.805,1.315-5.555,1.669c-1.26,0.255-2.434,0.384-3.522,0.387
			c-1.089,0.002-2.044-0.148-2.866-0.453c-0.822-0.305-1.489-0.79-2.001-1.455c-0.375-0.487-0.639-1.088-0.797-1.797
			c-0.503,0.391-1.019,0.782-1.563,1.171c-1.74,1.245-3.569,2.412-5.488,3.501c-1.919,1.089-3.855,2.048-5.808,2.876
			c-1.953,0.829-3.805,1.448-5.555,1.854c-1.26,0.292-2.434,0.453-3.522,0.483c-1.089,0.029-2.045-0.099-2.866-0.387
			c-0.822-0.288-1.489-0.759-2.001-1.416c-0.409-0.524-0.683-1.189-0.834-1.982c-0.741,0.976-1.545,1.94-2.442,2.886
			c-1.024,1.081-2.124,2.05-3.298,2.906c-1.174,0.857-2.348,1.42-3.522,1.692c-1.418,0.328-2.6,0.152-3.547-0.529
			c-0.947-0.681-1.764-1.799-2.453-3.354c-0.517,0.709-1.152,1.456-1.905,2.239c-0.753,0.783-1.577,1.524-2.469,2.22
			c-0.893,0.696-1.824,1.31-2.792,1.841c-0.968,0.531-1.936,0.901-2.905,1.112c-1.025,0.223-2.023,0.228-2.994,0.016
			c-0.972-0.212-1.831-0.634-2.578-1.263c-0.246-0.207-0.469-0.444-0.682-0.695c-0.692,0.492-1.39,0.983-2.118,1.473
			c-0.891,0.599-1.786,1.151-2.688,1.657c-0.902,0.506-1.781,0.939-2.638,1.299c-0.858,0.361-1.66,0.613-2.407,0.755
			c-1.149,0.22-2.217-0.079-3.206-0.895c-0.989-0.816-1.85-2-2.584-3.549c-0.334-0.706-0.631-1.482-0.899-2.312
			c-0.764,0.751-1.533,1.531-2.31,2.365c-1.004,1.078-2.045,2.209-3.122,3.39c-1.078,1.182-2.241,2.303-3.49,3.36
			c-1.249,1.058-2.609,2.088-4.083,3.086c-0.488,0.33-0.999,0.647-1.521,0.959h84.379v0.001h76.645
			c-1.01-0.395-1.967-0.867-2.859-1.426C434.059,268.346,432.541,266.791,431.398,264.899z"/>
		<path d="M183.885,173.869c-6.442,0-12.632,1.086-18.416,3.057L39.643,176.99c-0.485,6.95,7.633,17.571,19.1,17.566l81.165-0.041
			c-2.804,3.363-5.221,7.055-7.204,11.003l-72.283,0.037c-0.485,6.95,7.627,17.576,19.097,17.57l47.694-0.024
			c-0.369,2.62-0.572,5.292-0.572,8.012c0,1.003,0.027,1.999,0.078,2.989l-37.804,0.019c-0.485,6.95,7.629,17.571,19.1,17.565
			l22.46-0.012c8.28,21.432,29.091,36.681,53.409,36.681c31.564,0,57.243-25.679,57.243-57.243S215.449,173.869,183.885,173.869z
			 M127.997,243.459c0.122,0.553,0.244,1.105,0.382,1.651C128.216,244.601,128.087,244.052,127.997,243.459z M183.885,282.707
			c-28.495,0-51.594-23.1-51.594-51.594c0-28.495,23.1-51.594,51.594-51.594s51.594,23.1,51.594,51.594
			C235.479,259.607,212.379,282.707,183.885,282.707z"/>
	</g>
</g>
</svg>
